<?xml version="1.0" encoding="UTF-8" standalone="no"?>
<!DOCTYPE svg PUBLIC "-//W3C//DTD SVG 1.1//EN" "http://www.w3.org/Graphics/SVG/1.1/DTD/svg11.dtd">
<svg width="100%" height="100%" viewBox="0 0 45 45" version="1.1" xmlns="http://www.w3.org/2000/svg" xmlns:xlink="http://www.w3.org/1999/xlink" xml:space="preserve" xmlns:serif="http://www.serif.com/" style="fill-rule:evenodd;clip-rule:evenodd;stroke-linejoin:round;stroke-miterlimit:2;">
    <g transform="matrix(1,0,0,1,-4353.85,-2155.25)">
        <g transform="matrix(0.976897,0,0,0.949078,100.585,109.749)">
            <path d="M4372.01,2160.26C4372.01,2157.49 4374.19,2155.25 4376.88,2155.25C4379.57,2155.25 4381.75,2157.49 4381.75,2160.26C4383.09,2157.86 4386.07,2157.04 4388.4,2158.43C4390.72,2159.81 4391.52,2162.87 4390.18,2165.27C4392.5,2163.89 4395.48,2164.71 4396.83,2167.1C4398.17,2169.5 4397.37,2172.56 4395.04,2173.95C4397.73,2173.95 4399.91,2176.19 4399.91,2178.96C4399.91,2181.72 4397.73,2183.97 4395.04,2183.97C4397.37,2185.35 4398.17,2188.41 4396.83,2190.81C4395.48,2193.2 4392.5,2194.03 4390.18,2192.64C4391.52,2195.04 4390.72,2198.1 4388.4,2199.49C4386.07,2200.87 4383.09,2200.05 4381.75,2197.65C4381.75,2200.42 4379.57,2202.66 4376.88,2202.66C4374.19,2202.66 4372.01,2200.42 4372.01,2197.65C4370.67,2200.05 4367.69,2200.87 4365.36,2199.49C4363.04,2198.1 4362.24,2195.04 4363.58,2192.64C4361.26,2194.03 4358.28,2193.2 4356.93,2190.81C4355.59,2188.41 4356.39,2185.35 4358.72,2183.97C4356.03,2183.97 4353.85,2181.72 4353.85,2178.96C4353.85,2176.19 4356.03,2173.95 4358.72,2173.95C4356.39,2172.56 4355.59,2169.5 4356.93,2167.1C4358.28,2164.71 4361.26,2163.89 4363.58,2165.27C4362.24,2162.87 4363.04,2159.81 4365.36,2158.43C4367.69,2157.04 4370.67,2157.86 4372.01,2160.26Z" style="fill:rgb(184,73,81);"/>
        </g>
    </g>
</svg>
