<?xml version="1.0" encoding="UTF-8" standalone="no"?>
<!DOCTYPE svg PUBLIC "-//W3C//DTD SVG 1.1//EN" "http://www.w3.org/Graphics/SVG/1.1/DTD/svg11.dtd">
<svg width="100%" height="100%" viewBox="0 0 134 145" version="1.1" xmlns="http://www.w3.org/2000/svg" xmlns:xlink="http://www.w3.org/1999/xlink" xml:space="preserve" xmlns:serif="http://www.serif.com/" style="fill-rule:evenodd;clip-rule:evenodd;stroke-linejoin:round;stroke-miterlimit:2;">
    <g transform="matrix(1,0,0,1,-1442.62,-297.607)">
        <g>
            <g transform="matrix(0.632579,0,0,0.632579,782.536,312.447)">
                <path d="M1058.7,205.7C1060.51,205.7 1062.06,205.044 1063.37,203.732C1064.69,202.419 1065.34,200.862 1065.34,199.06L1065.34,181.371C1065.34,181.213 1065.26,181.134 1065.11,181.134L1063.02,181.134C1061.18,181.134 1059.62,181.774 1058.32,183.054C1057.03,184.335 1056.38,185.908 1056.38,187.773L1056.38,199.06C1056.38,200.198 1056.03,201.21 1055.34,202.095C1054.64,202.981 1053.74,203.455 1052.63,203.518L1052.25,203.518L1052.25,187.773C1052.25,185.908 1051.62,184.335 1050.36,183.054C1049.09,181.774 1047.53,181.134 1045.66,181.134L1043.72,181.134C1043.56,181.134 1043.48,181.213 1043.48,181.371L1043.48,199.06C1043.48,200.894 1044.12,202.459 1045.4,203.755C1046.68,205.052 1048.25,205.7 1050.12,205.7L1058.7,205.7Z" style="fill:rgb(39,15,24);fill-rule:nonzero;"/>
                <path d="M1076.91,169.325C1075.08,169.325 1073.52,169.957 1072.24,171.222C1070.96,172.486 1070.32,174.051 1070.32,175.917L1070.32,179.047C1070.32,179.205 1070.4,179.284 1070.56,179.284L1072.65,179.284C1074.45,179.284 1076,178.636 1077.29,177.34C1078.59,176.043 1079.24,174.494 1079.24,172.692L1079.24,169.562C1079.24,169.404 1079.16,169.325 1079,169.325L1076.91,169.325ZM1079.24,181.371C1079.24,181.213 1079.16,181.134 1079,181.134L1076.91,181.134C1075.11,181.134 1073.56,181.79 1072.27,183.102C1070.97,184.414 1070.32,185.971 1070.32,187.773L1070.32,205.463C1070.32,205.621 1070.4,205.7 1070.56,205.7L1072.65,205.7C1074.45,205.7 1076,205.052 1077.29,203.755C1078.59,202.459 1079.24,200.91 1079.24,199.108L1079.24,181.371Z" style="fill:rgb(39,15,24);fill-rule:nonzero;"/>
                <path d="M1084.69,169.325C1084.53,169.325 1084.45,169.404 1084.45,169.562L1084.45,199.06C1084.45,200.862 1085.11,202.419 1086.42,203.732C1087.74,205.044 1089.29,205.7 1091.09,205.7L1097.35,205.7C1097.48,205.7 1097.54,205.636 1097.54,205.51L1097.54,203.755C1097.54,203.629 1097.48,203.566 1097.35,203.566C1096.25,203.566 1095.32,203.099 1094.56,202.167C1093.8,201.234 1093.42,200.198 1093.42,199.06L1093.42,187.773C1093.42,186.635 1093.8,185.599 1094.56,184.667C1095.32,183.734 1096.23,183.268 1097.31,183.268C1097.46,183.268 1097.54,183.189 1097.54,183.031L1097.54,181.371C1097.54,181.213 1097.46,181.134 1097.31,181.134L1093.65,181.134C1093.5,181.134 1093.42,181.055 1093.42,180.896L1093.42,175.964C1093.42,174.099 1092.77,172.526 1091.47,171.245C1090.18,169.965 1088.61,169.325 1086.78,169.325L1084.69,169.325Z" style="fill:rgb(39,15,24);fill-rule:nonzero;"/>
                <path d="M1108.31,181.134C1106.51,181.134 1104.95,181.79 1103.64,183.102C1102.33,184.414 1101.67,185.955 1101.67,187.726L1101.67,199.06C1101.67,200.831 1102.33,202.38 1103.64,203.708C1104.95,205.036 1106.51,205.7 1108.31,205.7L1123.2,205.7C1123.36,205.7 1123.44,205.621 1123.44,205.463L1123.44,187.726C1123.44,185.955 1122.79,184.414 1121.49,183.102C1120.2,181.79 1118.66,181.134 1116.89,181.134L1108.31,181.134ZM1114.62,203.566C1113.41,203.566 1112.46,203.107 1111.75,202.19C1111.04,201.273 1110.68,200.23 1110.68,199.06L1110.68,187.726C1110.68,186.587 1111.04,185.56 1111.77,184.643C1112.5,183.726 1113.45,183.268 1114.62,183.268L1114.62,203.566Z" style="fill:rgb(39,15,24);fill-rule:nonzero;"/>
                <path d="M1140.84,203.898C1140.84,203.739 1140.76,203.66 1140.61,203.66C1139.59,203.66 1138.74,203.226 1138.05,202.356C1137.35,201.487 1137,200.515 1137,199.44L1137,169.562C1137,169.404 1136.92,169.325 1136.76,169.325L1134.82,169.325C1133.05,169.325 1131.56,169.918 1130.34,171.103C1129.12,172.289 1128.51,173.767 1128.51,175.537L1128.51,199.44C1128.51,201.147 1129.13,202.617 1130.36,203.85C1131.6,205.083 1133.08,205.7 1134.82,205.7L1140.61,205.7C1140.76,205.7 1140.84,205.621 1140.84,205.463L1140.84,203.898Z" style="fill:rgb(39,15,24);fill-rule:nonzero;"/>
                <path d="M1151.65,181.134C1149.82,181.26 1148.29,181.948 1147.06,183.197C1145.82,184.445 1145.21,185.971 1145.21,187.773L1145.21,205.463C1145.21,205.621 1145.29,205.7 1145.44,205.7L1147.53,205.7C1149.33,205.7 1150.89,205.044 1152.2,203.732C1153.51,202.419 1154.17,200.862 1154.17,199.06L1154.17,187.773C1154.17,186.603 1154.53,185.56 1155.24,184.643C1155.95,183.726 1156.9,183.268 1158.11,183.268L1158.11,205.463C1158.11,205.621 1158.18,205.7 1158.34,205.7L1160.24,205.7C1162.11,205.7 1163.68,205.052 1164.96,203.755C1166.24,202.459 1166.88,200.894 1166.88,199.06L1166.88,187.773C1166.88,186.635 1167.27,185.599 1168.04,184.667C1168.82,183.734 1169.79,183.268 1170.96,183.268L1170.96,205.463C1170.96,205.526 1170.97,205.573 1171.01,205.605C1171.07,205.668 1171.13,205.7 1171.19,205.7L1173.14,205.7C1175,205.7 1176.57,205.052 1177.83,203.755C1179.1,202.459 1179.73,200.894 1179.73,199.06L1179.73,187.773C1179.73,185.939 1179.1,184.374 1177.83,183.078C1176.57,181.782 1175,181.134 1173.14,181.134L1151.65,181.134Z" style="fill:rgb(39,15,24);fill-rule:nonzero;"/>
                <path d="M1191.35,181.134C1189.55,181.134 1187.99,181.79 1186.68,183.102C1185.37,184.414 1184.71,185.955 1184.71,187.726L1184.71,199.06C1184.71,200.831 1185.37,202.38 1186.68,203.708C1187.99,205.036 1189.55,205.7 1191.35,205.7L1206.24,205.7C1206.4,205.7 1206.48,205.621 1206.48,205.463L1206.48,187.726C1206.48,185.955 1205.83,184.414 1204.53,183.102C1203.24,181.79 1201.7,181.134 1199.93,181.134L1191.35,181.134ZM1197.66,203.566C1196.46,203.566 1195.5,203.107 1194.79,202.19C1194.08,201.273 1193.72,200.23 1193.72,199.06L1193.72,187.726C1193.72,186.587 1194.09,185.56 1194.81,184.643C1195.54,183.726 1196.49,183.268 1197.66,183.268L1197.66,203.566Z" style="fill:rgb(39,15,24);fill-rule:nonzero;"/>
                <path d="M1217.24,205.7C1219.08,205.7 1220.65,205.044 1221.96,203.732C1223.28,202.419 1223.93,200.862 1223.93,199.06L1223.93,187.773C1223.93,186.54 1224.3,185.473 1225.02,184.572C1225.75,183.671 1226.68,183.173 1227.82,183.078C1227.98,183.078 1228.06,182.999 1228.06,182.841L1228.06,181.371C1228.06,181.213 1227.98,181.134 1227.82,181.134L1221.61,181.134C1219.77,181.134 1218.2,181.774 1216.89,183.054C1215.58,184.335 1214.92,185.908 1214.92,187.773L1214.92,199.06C1214.92,200.198 1214.55,201.234 1213.81,202.167C1213.06,203.099 1212.14,203.566 1211.03,203.566C1210.87,203.566 1210.79,203.645 1210.79,203.803L1210.79,205.463C1210.79,205.621 1210.87,205.7 1211.03,205.7L1217.24,205.7Z" style="fill:rgb(39,15,24);fill-rule:nonzero;"/>
                <path d="M1232.61,169.325C1232.45,169.325 1232.37,169.404 1232.37,169.562L1232.37,205.463C1232.37,205.621 1232.45,205.7 1232.61,205.7L1234.51,205.7C1236.37,205.7 1237.94,205.059 1239.2,203.779C1240.47,202.499 1241.1,200.941 1241.1,199.108L1241.1,183.268C1242.27,183.268 1243.21,183.718 1243.92,184.619C1244.63,185.52 1244.99,186.54 1244.99,187.678L1244.99,205.463C1244.99,205.621 1245.07,205.7 1245.23,205.7L1247.31,205.7C1249.08,205.7 1250.62,205.052 1251.91,203.755C1253.21,202.459 1253.86,200.91 1253.86,199.108L1253.86,187.678C1253.86,185.908 1253.21,184.374 1251.91,183.078C1250.62,181.782 1249.08,181.134 1247.31,181.134L1241.1,181.134L1241.1,175.917C1241.1,174.051 1240.47,172.486 1239.2,171.222C1237.94,169.957 1236.37,169.325 1234.51,169.325L1232.61,169.325Z" style="fill:rgb(39,15,24);fill-rule:nonzero;"/>
            </g>
            <g transform="matrix(1,0,0,1,-160.376,0)">
                <path d="M1678.63,298.875C1678.63,298.875 1679.62,298.489 1680.29,298.572C1681.41,298.713 1681.95,299.312 1682.19,299.682C1682.56,300.039 1684.46,301.634 1688.17,301.157C1694.04,300.403 1704.53,297.693 1704.53,297.693C1704.53,297.693 1704.53,297.693 1704.53,297.693C1705.72,297.386 1707.04,297.923 1707.66,299.061C1707.66,299.061 1708.74,300.989 1711.99,304.708C1712.92,305.768 1712.89,307.312 1712.04,308.322C1710.09,310.623 1710.36,312.511 1710.98,315.978C1711.63,319.592 1711.9,321.904 1711.73,323.406C1711.6,324.508 1711.36,325.613 1710.75,326.546L1710.75,326.546C1710.36,327.146 1709.81,327.616 1709.13,328.037C1709.34,331.555 1707.66,335.547 1704.72,338.803C1704.69,338.842 1704.65,338.881 1704.61,338.919L1703.14,340.349C1703.08,340.416 1703,340.479 1702.93,340.537C1702.03,341.302 1702.23,341.28 1700.94,345.928C1700.23,348.489 1698.11,352.674 1698.11,352.674C1698.1,352.693 1698.09,352.712 1698.08,352.731C1696.04,356.512 1693.4,358.757 1690.65,359.851C1690.44,364.648 1687.77,368.154 1684.3,370.903C1679.32,374.847 1672.65,375.152 1670.97,375.211C1667.9,375.319 1665.51,376.31 1663.32,377.424C1659.77,379.23 1655.28,379.03 1652.26,378.118C1649.72,377.35 1648.09,376.296 1647.05,375.263L1647.02,375.272C1645.8,375.639 1643.9,375.749 1641.16,374.258C1634.85,370.834 1630.99,364.663 1628.54,356.774C1626.8,351.151 1626.66,347.786 1626.65,346.953C1625.06,334.153 1631.15,330.163 1633.26,329.158C1635.13,328.269 1638.4,325.655 1640.6,317.257C1640.61,317.208 1640.62,317.159 1640.64,317.111C1640.64,317.111 1641.14,315.594 1641.14,315.594C1644.27,305.574 1650.6,302.666 1656.83,302.074C1669.18,300.899 1674.78,299.905 1677.28,299.286C1678.06,299.093 1678.63,298.875 1678.63,298.875ZM1708.9,324.711C1709.1,324.211 1709.18,323.658 1709.24,323.115C1709.4,321.76 1709.1,319.679 1708.52,316.419C1707.73,312.004 1707.65,309.639 1710.13,306.709C1710.21,306.61 1710.2,306.459 1710.11,306.355C1706.6,302.349 1705.47,300.257 1705.47,300.257C1705.4,300.143 1705.27,300.083 1705.15,300.114C1705.15,300.114 1694.46,302.869 1688.49,303.637C1682.68,304.383 1680.15,301.154 1680.15,301.154C1680.15,301.154 1680.12,301.07 1679.98,301.053C1679.89,301.041 1679.78,301.092 1679.78,301.092C1679.78,301.092 1679.34,301.351 1677.88,301.713C1677.12,301.902 1676.07,302.126 1674.64,302.379C1674.28,304.251 1673.43,313.438 1685.35,327.229L1685.37,327.248C1674.25,316.751 1671.71,304.93 1671.39,302.903C1668.06,303.393 1663.45,303.955 1657.07,304.562C1654.74,304.784 1652.41,305.389 1650.29,306.702L1650.35,306.662C1649.99,307.178 1649.07,308.499 1648.62,309.336C1646.29,313.686 1645.25,321.07 1652.97,334.915L1657.62,342.344C1648.28,330.976 1643.83,321.827 1642.98,318.012C1640.46,327.568 1636.48,330.397 1634.34,331.416C1632.8,332.149 1629.05,334.864 1628.9,342.532C1629.18,343.552 1630.24,345.347 1631.11,346.922C1632.9,350.171 1636.24,354.727 1642.4,360.701L1642.44,360.738C1632.95,352.635 1629.76,348.778 1629.15,346.997C1629.15,346.945 1629.15,346.903 1629.15,346.871C1629.15,347.39 1629.23,350.536 1630.93,356.035C1633.16,363.236 1636.6,368.936 1642.35,372.061C1646.49,374.307 1647.66,371.835 1647.7,371.792C1648.05,372.823 1649.26,374.6 1652.99,375.725C1655.19,376.39 1658.33,376.637 1661.07,375.672C1661.05,375.678 1661.04,375.683 1661.02,375.688C1661.15,375.184 1661.08,374.076 1660.82,373.311C1660.55,372.54 1659.99,371.537 1658.95,370.239C1655.84,365.988 1651.12,359.266 1646.75,351.962L1642.58,344.534L1646.07,350.259C1654.14,362.799 1661.58,369.671 1664.94,372.209L1666.72,373.359C1667.99,373.003 1669.37,372.766 1670.88,372.713C1672.07,372.671 1676.11,372.528 1679.94,370.685C1679.86,370.724 1679.78,370.763 1679.7,370.8C1682.06,368.682 1684.38,364.295 1683.34,358.452C1682.26,352.362 1679.36,347.406 1675.54,341.85C1674.73,340.679 1673.88,339.481 1673.01,338.239L1673.02,338.255C1679.02,345.658 1683.85,349.322 1687.51,351.044C1691.06,352.716 1693.89,352.881 1695.31,352.528C1695.22,352.678 1695.12,352.825 1695.03,352.968C1695.32,352.524 1695.61,352.049 1695.88,351.541C1695.88,351.541 1697.86,347.646 1698.53,345.259C1700.18,339.296 1700.16,339.605 1701.39,338.561L1701.4,338.56L1702.87,337.129C1703.28,336.668 1703.67,336.191 1704.03,335.702L1704.01,335.73C1704.78,334.312 1706,331.929 1704.83,327.895C1704.26,325.903 1702.24,322.276 1701,320.248C1700.26,319.031 1699.39,317.687 1698.41,316.071C1702.89,321.997 1708.02,325.274 1708.91,324.68L1708.9,324.711ZM1628.9,342.593L1628.9,342.532L1628.9,342.593ZM1650.19,306.765L1650.16,306.784L1650.22,306.747L1650.19,306.765ZM1650.25,306.729L1650.23,306.742L1650.28,306.706L1650.25,306.729Z" style="fill:rgb(39,15,24);"/>
            </g>
            <g transform="matrix(1,0,0,1,220.657,-374.417)">
                <g transform="matrix(1.77154,0,0,1.79579,196.928,-69.1668)">
                    <path d="M636.647,467.351C636.647,466.93 638.75,467.347 638.75,468.025C638.75,470.183 627.38,471.935 613.375,471.935C612.655,471.935 611.942,471.931 611.236,471.921C611.195,471.914 611.166,471.876 611.17,471.834C611.174,471.792 611.209,471.76 611.252,471.76C611.258,471.761 611.265,471.761 611.272,471.761C625.277,471.761 636.647,469.785 636.647,467.351Z" style="fill:rgb(35,14,21);"/>
                </g>
                <g transform="matrix(1.25572,0,0,1.43568,510.14,98.2058)">
                    <path d="M590.103,468.623C590.103,469.503 588,469.183 588,468.025C588,465.868 599.37,464.116 613.375,464.116C624.24,464.116 633.52,465.17 637.108,466.688C637.143,466.709 637.155,466.749 637.138,466.783C637.12,466.816 637.077,466.833 637.036,466.823C632.566,465.812 624.578,465.156 615.478,465.156C601.473,465.156 590.103,466.71 590.103,468.623Z" style="fill:rgb(35,14,21);"/>
                </g>
                <g transform="matrix(-0.70015,0,0,0.709731,1715.88,439.904)">
                    <path d="M636.647,467.351C636.647,466.93 638.75,467.347 638.75,468.025C638.75,470.183 627.38,471.935 613.375,471.935C612.644,471.935 611.92,471.93 611.204,471.921C611.17,471.894 611.157,471.848 611.172,471.807C611.187,471.766 611.226,471.739 611.27,471.739C611.27,471.761 611.271,471.761 611.272,471.761C625.277,471.761 636.647,469.785 636.647,467.351Z" style="fill:rgb(35,14,21);"/>
                </g>
                <g transform="matrix(-0.496285,0,0,0.567411,1592.09,506.053)">
                    <path d="M590.103,468.623C590.103,469.503 588,469.183 588,468.025C588,465.868 599.37,464.116 613.375,464.116C623.14,464.116 631.625,464.967 635.848,466.242C635.928,466.287 635.96,466.376 635.922,466.453C635.884,466.53 635.789,466.571 635.696,466.551C631.067,465.696 623.73,465.156 615.478,465.156C601.473,465.156 590.103,466.71 590.103,468.623Z" style="fill:rgb(35,14,21);"/>
                </g>
            </g>
        </g>
    </g>
</svg>
