<?xml version="1.0" encoding="UTF-8" standalone="no"?>
<!DOCTYPE svg PUBLIC "-//W3C//DTD SVG 1.1//EN" "http://www.w3.org/Graphics/SVG/1.1/DTD/svg11.dtd">
<svg width="100%" height="100%" viewBox="0 0 536 579" version="1.1" xmlns="http://www.w3.org/2000/svg" xmlns:xlink="http://www.w3.org/1999/xlink" xml:space="preserve" xmlns:serif="http://www.serif.com/" style="fill-rule:evenodd;clip-rule:evenodd;stroke-linejoin:round;stroke-miterlimit:2;">
    <g transform="matrix(1,0,0,1,-9305.1,-1493.26)">
        <g>
            <g transform="matrix(1,0,0,1,68.0628,-2366.57)">
                <path d="M9504.98,4295.16C9508.29,4295.28 9573.38,4296.39 9631.46,4197.28C9651.46,4217.87 9672.26,4235.11 9692.73,4249.51L9692.73,4249.52C9714.74,4264.93 9744.94,4260.6 9761.74,4239.63C9778.53,4218.66 9776.17,4188.25 9756.32,4170.13L9756.32,4170.13C9751.41,4165.65 9746.25,4161.05 9740.83,4156.33C9713.25,4132.32 9692.47,4108.63 9676.91,4085.99C9698.32,4001.52 9682.17,3942.4 9664.23,3907.07C9663.61,3905.74 9662.98,3904.53 9662.33,3903.42C9658.35,3895.98 9654.33,3889.69 9650.68,3884.55C9649.97,3883.54 9648.66,3882 9646.88,3880.05C9633.67,3865.53 9614.35,3858.15 9594.83,3860.16C9575.3,3862.16 9557.89,3873.31 9547.89,3890.2C9543.1,3898.28 9539.56,3904.68 9538.54,3907.41C9527.5,3937.12 9515.11,3997.11 9549.47,4076.76C9542.47,4098.53 9532.45,4121.97 9518.6,4147C9513.03,4157.06 9506.63,4166.9 9499.84,4176.31C9487.84,4162.52 9479.7,4148.93 9476.07,4142.35C9466.59,4125.22 9458.94,4108.82 9452.84,4093.22C9495.14,4008.15 9484,3943.35 9472.54,3910.52C9470.94,3906.06 9469.62,3903.43 9467.57,3899.73C9466.05,3896.99 9464.19,3893.76 9462.08,3890.19C9452.08,3873.31 9434.67,3862.16 9415.14,3860.16C9395.62,3858.15 9376.3,3865.53 9363.09,3880.05C9361.31,3882 9360,3883.54 9359.29,3884.55C9338.55,3913.75 9306.13,3979.86 9333.06,4086.01C9317.48,4108.66 9296.69,4132.34 9269.14,4156.33C9263.72,4161.05 9258.56,4165.65 9253.64,4170.13L9253.64,4170.13C9233.8,4188.25 9231.43,4218.66 9248.23,4239.63L9251.18,4242.97L9251.84,4243.65L9254.95,4246.56L9255.5,4247L9258.57,4249.36L9259.14,4249.77L9262.67,4251.98L9263.46,4252.42L9267.25,4254.32L9271.17,4255.85L9272.02,4256.15L9275.96,4257.28L9276.63,4257.43L9280.32,4258.13L9280.99,4258.24L9285.06,4258.63L9285.96,4258.67L9290.16,4258.69L9294.86,4258.28L9299.02,4257.51L9299.91,4257.32L9303.92,4256.18L9304.58,4255.95L9308.18,4254.55L9308.84,4254.28L9312.65,4252.36L9313.46,4251.9L9317.24,4249.52C9337.7,4235.11 9358.5,4217.88 9378.5,4197.29C9436.55,4296.38 9501.66,4295.28 9504.98,4295.16ZM9619.43,4207.22C9606.23,4216.53 9589.82,4221.46 9573.56,4221.45C9551.27,4221.45 9531.89,4211.79 9516.08,4199.07C9492.68,4180.24 9477.17,4154.72 9471.67,4144.78C9400.76,4016.64 9430.97,3928.59 9442.32,3905.81C9445.04,3900.35 9448.13,3896.7 9451.21,3894.79C9453.44,3893.4 9455.71,3892.85 9457.93,3893.06L9457.75,3892.76C9448.57,3877.24 9432.57,3866.99 9414.63,3865.16C9396.69,3863.32 9378.94,3870.1 9366.8,3883.43L9366.8,3883.43C9365.21,3885.18 9364.02,3886.56 9363.39,3887.46C9343,3916.16 9311.42,3981.22 9338.19,4085.74L9338.25,4085.99C9342.23,4101.49 9347.51,4117.88 9354.29,4135.14C9362.84,4156.9 9371.87,4175.61 9381.08,4191.69C9381.17,4191.81 9381.24,4191.94 9381.3,4192.07C9439.16,4292.77 9504.22,4290.16 9504.85,4290.14C9504.89,4290.13 9504.93,4290.13 9504.96,4290.13L9504.99,4290.13L9505,4290.13C9505.04,4290.13 9505.08,4290.13 9505.12,4290.14C9505.7,4290.16 9564.13,4292.5 9619.43,4207.22ZM9632.94,4191.58C9653.36,4212.91 9674.67,4230.66 9695.62,4245.4C9715.46,4259.29 9742.67,4255.39 9757.81,4236.49C9772.95,4217.58 9770.82,4190.17 9752.93,4173.84C9748.05,4169.39 9742.91,4164.81 9737.52,4160.12C9627.09,4063.97 9623.89,3972.59 9629.55,3931.74C9630.46,3925.15 9631.62,3916.1 9636.18,3905.31C9639.23,3898.08 9644.05,3893.76 9649.02,3893.55C9649.59,3893.53 9650.17,3893.56 9650.76,3893.64C9649.33,3891.42 9647.93,3889.36 9646.58,3887.46C9645.94,3886.56 9644.76,3885.18 9643.16,3883.43L9643.16,3883.43C9631.02,3870.1 9613.28,3863.32 9595.34,3865.16C9577.4,3866.99 9561.4,3877.24 9552.22,3892.76L9552.22,3892.76C9547.64,3900.47 9544.22,3906.56 9543.25,3909.16C9529.16,3947.09 9513.21,4035.21 9598.57,4150.76C9609.46,4165.5 9620.89,4178.95 9632.6,4191.22C9632.73,4191.33 9632.84,4191.45 9632.94,4191.58ZM9334.74,4092.39C9319.24,4114.27 9298.93,4137.05 9272.44,4160.12C9267.05,4164.81 9261.92,4169.39 9257.03,4173.84C9239.15,4190.17 9237.01,4217.58 9252.15,4236.49C9253,4237.54 9253.88,4238.55 9254.82,4239.5L9255.13,4239.85L9255.4,4240.11C9256.31,4241.03 9257.25,4241.9 9258.22,4242.73L9258.36,4242.87L9258.71,4243.13L9260.06,4244.24L9261.47,4245.26L9261.82,4245.52L9261.98,4245.62C9263.02,4246.34 9264.08,4247.01 9265.17,4247.62L9265.47,4247.81L9265.88,4248.01C9268.12,4249.25 9270.44,4250.28 9272.83,4251.11L9273.26,4251.27L9273.6,4251.37C9274.77,4251.76 9275.95,4252.1 9277.15,4252.39L9277.33,4252.45L9277.75,4252.53L9279.4,4252.89L9281.07,4253.16L9281.49,4253.24L9281.68,4253.26C9282.9,4253.43 9284.12,4253.55 9285.35,4253.61L9285.7,4253.65L9286.16,4253.65C9287.42,4253.72 9288.68,4253.72 9289.94,4253.67C9289.94,4253.67 9294.18,4253.29 9294.18,4253.29L9296.82,4252.86L9297.94,4252.61L9298.39,4252.52L9298.73,4252.43C9299.95,4252.14 9301.16,4251.8 9302.35,4251.41L9302.54,4251.36L9302.94,4251.2L9304.58,4250.62L9306.19,4249.94L9306.6,4249.78L9306.78,4249.69C9307.94,4249.17 9309.09,4248.6 9310.22,4247.96L9310.55,4247.8L9310.95,4247.54C9312.11,4246.9 9313.24,4246.18 9314.35,4245.4C9334.91,4230.93 9355.82,4213.56 9375.89,4192.75C9366.85,4176.78 9358,4158.32 9349.61,4136.98C9343.49,4121.41 9338.59,4106.55 9334.74,4092.39ZM9627.59,4193.24C9616.21,4181.22 9605.12,4168.08 9594.53,4153.74C9576.29,4129.06 9562.61,4105.6 9552.51,4083.58C9545.53,4104.12 9535.91,4126.09 9523,4149.43C9517.16,4159.99 9510.42,4170.3 9503.27,4180.14C9508.06,4185.33 9513.39,4190.45 9519.23,4195.15C9534.18,4207.19 9552.48,4216.42 9573.56,4216.43C9593.78,4216.43 9614.28,4208.34 9627.59,4193.24ZM9463.35,3902.45C9463.14,3902.16 9462.93,3901.87 9462.72,3901.61C9461.15,3899.6 9459.5,3898.37 9457.74,3898.1C9456.08,3897.84 9454.41,3898.5 9452.75,3899.86C9450.67,3901.58 9448.68,3904.32 9446.82,3908.05C9437.42,3926.93 9415.15,3991.43 9450.39,4086.79C9490.66,4002.91 9478.06,3939.71 9466.71,3909.16C9466.2,3907.8 9465.02,3905.47 9463.35,3902.45ZM9657.74,3905.5C9656.5,3903.43 9655.23,3901.82 9653.94,3900.66C9652.34,3899.22 9650.77,3898.51 9649.24,3898.57C9647.7,3898.64 9646.27,3899.45 9644.96,3900.74C9643.35,3902.31 9641.95,3904.55 9640.81,3907.26C9636.48,3917.54 9635.4,3926.16 9634.53,3932.43C9630.51,3961.46 9631.24,4016.41 9673.12,4080.35C9693.22,3996.72 9675.72,3938.99 9657.74,3905.5Z" style="fill:rgb(35,14,21);"/>
            </g>
            <g transform="matrix(2.54725,0,0,2.54725,6647.11,1548.22)">
                <path d="M1058.7,205.7C1060.51,205.7 1062.06,205.044 1063.37,203.732C1064.69,202.419 1065.34,200.862 1065.34,199.06L1065.34,181.371C1065.34,181.213 1065.26,181.134 1065.11,181.134L1063.02,181.134C1061.18,181.134 1059.62,181.774 1058.32,183.054C1057.03,184.335 1056.38,185.908 1056.38,187.773L1056.38,199.06C1056.38,200.198 1056.03,201.21 1055.34,202.095C1054.64,202.981 1053.74,203.455 1052.63,203.518L1052.25,203.518L1052.25,187.773C1052.25,185.908 1051.62,184.335 1050.36,183.054C1049.09,181.774 1047.53,181.134 1045.66,181.134L1043.72,181.134C1043.56,181.134 1043.48,181.213 1043.48,181.371L1043.48,199.06C1043.48,200.894 1044.12,202.459 1045.4,203.755C1046.68,205.052 1048.25,205.7 1050.12,205.7L1058.7,205.7Z" style="fill:rgb(35,14,21);fill-rule:nonzero;"/>
                <path d="M1076.91,169.325C1075.08,169.325 1073.52,169.957 1072.24,171.222C1070.96,172.486 1070.32,174.051 1070.32,175.917L1070.32,179.047C1070.32,179.205 1070.4,179.284 1070.56,179.284L1072.65,179.284C1074.45,179.284 1076,178.636 1077.29,177.34C1078.59,176.043 1079.24,174.494 1079.24,172.692L1079.24,169.562C1079.24,169.404 1079.16,169.325 1079,169.325L1076.91,169.325ZM1079.24,181.371C1079.24,181.213 1079.16,181.134 1079,181.134L1076.91,181.134C1075.11,181.134 1073.56,181.79 1072.27,183.102C1070.97,184.414 1070.32,185.971 1070.32,187.773L1070.32,205.463C1070.32,205.621 1070.4,205.7 1070.56,205.7L1072.65,205.7C1074.45,205.7 1076,205.052 1077.29,203.755C1078.59,202.459 1079.24,200.91 1079.24,199.108L1079.24,181.371Z" style="fill:rgb(35,14,21);fill-rule:nonzero;"/>
                <path d="M1084.69,169.325C1084.53,169.325 1084.45,169.404 1084.45,169.562L1084.45,199.06C1084.45,200.862 1085.11,202.419 1086.42,203.732C1087.74,205.044 1089.29,205.7 1091.09,205.7L1097.35,205.7C1097.48,205.7 1097.54,205.636 1097.54,205.51L1097.54,203.755C1097.54,203.629 1097.48,203.566 1097.35,203.566C1096.25,203.566 1095.32,203.099 1094.56,202.167C1093.8,201.234 1093.42,200.198 1093.42,199.06L1093.42,187.773C1093.42,186.635 1093.8,185.599 1094.56,184.667C1095.32,183.734 1096.23,183.268 1097.31,183.268C1097.46,183.268 1097.54,183.189 1097.54,183.031L1097.54,181.371C1097.54,181.213 1097.46,181.134 1097.31,181.134L1093.65,181.134C1093.5,181.134 1093.42,181.055 1093.42,180.896L1093.42,175.964C1093.42,174.099 1092.77,172.526 1091.47,171.245C1090.18,169.965 1088.61,169.325 1086.78,169.325L1084.69,169.325Z" style="fill:rgb(35,14,21);fill-rule:nonzero;"/>
                <path d="M1108.31,181.134C1106.51,181.134 1104.95,181.79 1103.64,183.102C1102.33,184.414 1101.67,185.955 1101.67,187.726L1101.67,199.06C1101.67,200.831 1102.33,202.38 1103.64,203.708C1104.95,205.036 1106.51,205.7 1108.31,205.7L1123.2,205.7C1123.36,205.7 1123.44,205.621 1123.44,205.463L1123.44,187.726C1123.44,185.955 1122.79,184.414 1121.49,183.102C1120.2,181.79 1118.66,181.134 1116.89,181.134L1108.31,181.134ZM1114.62,203.566C1113.41,203.566 1112.46,203.107 1111.75,202.19C1111.04,201.273 1110.68,200.23 1110.68,199.06L1110.68,187.726C1110.68,186.587 1111.04,185.56 1111.77,184.643C1112.5,183.726 1113.45,183.268 1114.62,183.268L1114.62,203.566Z" style="fill:rgb(35,14,21);fill-rule:nonzero;"/>
                <path d="M1140.84,203.898C1140.84,203.739 1140.76,203.66 1140.61,203.66C1139.59,203.66 1138.74,203.226 1138.05,202.356C1137.35,201.487 1137,200.515 1137,199.44L1137,169.562C1137,169.404 1136.92,169.325 1136.76,169.325L1134.82,169.325C1133.05,169.325 1131.56,169.918 1130.34,171.103C1129.12,172.289 1128.51,173.767 1128.51,175.537L1128.51,199.44C1128.51,201.147 1129.13,202.617 1130.36,203.85C1131.6,205.083 1133.08,205.7 1134.82,205.7L1140.61,205.7C1140.76,205.7 1140.84,205.621 1140.84,205.463L1140.84,203.898Z" style="fill:rgb(35,14,21);fill-rule:nonzero;"/>
                <path d="M1151.65,181.134C1149.82,181.26 1148.29,181.948 1147.06,183.197C1145.82,184.445 1145.21,185.971 1145.21,187.773L1145.21,205.463C1145.21,205.621 1145.29,205.7 1145.44,205.7L1147.53,205.7C1149.33,205.7 1150.89,205.044 1152.2,203.732C1153.51,202.419 1154.17,200.862 1154.17,199.06L1154.17,187.773C1154.17,186.603 1154.53,185.56 1155.24,184.643C1155.95,183.726 1156.9,183.268 1158.11,183.268L1158.11,205.463C1158.11,205.621 1158.18,205.7 1158.34,205.7L1160.24,205.7C1162.11,205.7 1163.68,205.052 1164.96,203.755C1166.24,202.459 1166.88,200.894 1166.88,199.06L1166.88,187.773C1166.88,186.635 1167.27,185.599 1168.04,184.667C1168.82,183.734 1169.79,183.268 1170.96,183.268L1170.96,205.463C1170.96,205.526 1170.97,205.573 1171.01,205.605C1171.07,205.668 1171.13,205.7 1171.19,205.7L1173.14,205.7C1175,205.7 1176.57,205.052 1177.83,203.755C1179.1,202.459 1179.73,200.894 1179.73,199.06L1179.73,187.773C1179.73,185.939 1179.1,184.374 1177.83,183.078C1176.57,181.782 1175,181.134 1173.14,181.134L1151.65,181.134Z" style="fill:rgb(35,14,21);fill-rule:nonzero;"/>
                <path d="M1191.35,181.134C1189.55,181.134 1187.99,181.79 1186.68,183.102C1185.37,184.414 1184.71,185.955 1184.71,187.726L1184.71,199.06C1184.71,200.831 1185.37,202.38 1186.68,203.708C1187.99,205.036 1189.55,205.7 1191.35,205.7L1206.24,205.7C1206.4,205.7 1206.48,205.621 1206.48,205.463L1206.48,187.726C1206.48,185.955 1205.83,184.414 1204.53,183.102C1203.24,181.79 1201.7,181.134 1199.93,181.134L1191.35,181.134ZM1197.66,203.566C1196.46,203.566 1195.5,203.107 1194.79,202.19C1194.08,201.273 1193.72,200.23 1193.72,199.06L1193.72,187.726C1193.72,186.587 1194.09,185.56 1194.81,184.643C1195.54,183.726 1196.49,183.268 1197.66,183.268L1197.66,203.566Z" style="fill:rgb(35,14,21);fill-rule:nonzero;"/>
                <path d="M1217.24,205.7C1219.08,205.7 1220.65,205.044 1221.96,203.732C1223.28,202.419 1223.93,200.862 1223.93,199.06L1223.93,187.773C1223.93,186.54 1224.3,185.473 1225.02,184.572C1225.75,183.671 1226.68,183.173 1227.82,183.078C1227.98,183.078 1228.06,182.999 1228.06,182.841L1228.06,181.371C1228.06,181.213 1227.98,181.134 1227.82,181.134L1221.61,181.134C1219.77,181.134 1218.2,181.774 1216.89,183.054C1215.58,184.335 1214.92,185.908 1214.92,187.773L1214.92,199.06C1214.92,200.198 1214.55,201.234 1213.81,202.167C1213.06,203.099 1212.14,203.566 1211.03,203.566C1210.87,203.566 1210.79,203.645 1210.79,203.803L1210.79,205.463C1210.79,205.621 1210.87,205.7 1211.03,205.7L1217.24,205.7Z" style="fill:rgb(35,14,21);fill-rule:nonzero;"/>
                <path d="M1232.61,169.325C1232.45,169.325 1232.37,169.404 1232.37,169.562L1232.37,205.463C1232.37,205.621 1232.45,205.7 1232.61,205.7L1234.51,205.7C1236.37,205.7 1237.94,205.059 1239.2,203.779C1240.47,202.499 1241.1,200.941 1241.1,199.108L1241.1,183.268C1242.27,183.268 1243.21,183.718 1243.92,184.619C1244.63,185.52 1244.99,186.54 1244.99,187.678L1244.99,205.463C1244.99,205.621 1245.07,205.7 1245.23,205.7L1247.31,205.7C1249.08,205.7 1250.62,205.052 1251.91,203.755C1253.21,202.459 1253.86,200.91 1253.86,199.108L1253.86,187.678C1253.86,185.908 1253.21,184.374 1251.91,183.078C1250.62,181.782 1249.08,181.134 1247.31,181.134L1241.1,181.134L1241.1,175.917C1241.1,174.051 1240.47,172.486 1239.2,171.222C1237.94,169.957 1236.37,169.325 1234.51,169.325L1232.61,169.325Z" style="fill:rgb(35,14,21);fill-rule:nonzero;"/>
            </g>
        </g>
    </g>
</svg>
